<svg viewBox="0 0 1128 1874" xmlns="http://www.w3.org/2000/svg" role="img" aria-label="Twelve countries shown as pairs of stacked bars, their diets in 1961 and in the most recent year, as shares of daily calories. Beside each bar is the share coming from oils, sugar, meat and dairy, the Western pattern. In 1961 that number is 64 for the United States but only 7 for South Korea and 10 for China. By 2023 South Korea reaches 54, China 33, and Brazil 57, while Nigeria and Senegal barely move. The plates converge toward the Western pattern.">
<style>
 .bg{fill:#ffffff}
 .t{fill:#0f141c;font:700 26px system-ui,-apple-system,Segoe UI,sans-serif}
 .sub{fill:#586170;font:15px system-ui,-apple-system,Segoe UI,sans-serif}
 .cty{fill:#0f141c;font:600 18px system-ui,-apple-system,Segoe UI,sans-serif}
 .yr{fill:#8b94a3;font:12.5px system-ui,-apple-system,Segoe UI,sans-serif}
 .num{fill:#0f141c;font:700 15px system-ui,-apple-system,Segoe UI,sans-serif}
 .axisl{stroke:#c7d0dc;stroke-width:1.2}
 .segnum{fill:#ffffff;font:600 12.5px system-ui,-apple-system,Segoe UI,sans-serif}
 .segsm{font:600 11px system-ui,-apple-system,Segoe UI,sans-serif}
 .tick2{fill:#5b6470;font:12px system-ui,-apple-system,Segoe UI,sans-serif}
 .lg{fill:#586170;font:13.5px system-ui,-apple-system,Segoe UI,sans-serif}
 .src{fill:#8b94a3;font:12px system-ui,-apple-system,Segoe UI,sans-serif}
 @media (prefers-color-scheme:dark){.bg{fill:#0f141c}.t{fill:#e7eef7}.sub{fill:#94a1b2}
 .cty{fill:#e7eef7}.yr{fill:#6b7688}.num{fill:#e7eef7}.axisl{stroke:#33415a}.tick2{fill:#94a1b2}.lg{fill:#94a1b2}.src{fill:#6b7688}}
</style>
<rect class="bg" width="1128" height="1874" rx="12"/>
<text class="t" x="28" y="42">Twelve plates, then and now</text>
<text class="sub" x="28" y="68">Share of daily calories by food group, 1961 (top bar) and the latest year (bottom bar).</text>
<text class="sub" x="28" y="88">Every number is a percent of daily calories. Small segments are numbered just below their bar.</text>
<rect x="28" y="100" width="13" height="13" rx="3" fill="#8a7a4e"/>
<text class="lg" x="46" y="111">Staple plants</text>
<rect x="166.8" y="100" width="13" height="13" rx="3" fill="#e0862b"/>
<text class="lg" x="184.8" y="111">Oils and sugar</text>
<rect x="313.2" y="100" width="13" height="13" rx="3" fill="#d1477a"/>
<text class="lg" x="331.2" y="111">Meat, dairy, eggs</text>
<rect x="482.4" y="100" width="13" height="13" rx="3" fill="#12a594"/>
<text class="lg" x="500.4" y="111">Fruits and vegetables</text>
<rect x="682.0" y="100" width="13" height="13" rx="3" fill="#8b94a3"/>
<text class="lg" x="700.0" y="111">Alcohol and other</text>
<text class="cty" x="28" y="148">United States</text>
<text class="yr" x="28" y="200.0">1961</text>
<rect x="72.0" y="172" width="120.6" height="48" fill="#8a7a4e"><title>United States. Staple plants, 1961: 26.1 percent</title></rect>
<text class="segnum" x="132.3" y="200.5" text-anchor="middle">26</text>
<rect x="192.6" y="172" width="167.7" height="48" fill="#e0862b"><title>United States. Oils and sugar, 1961: 36.3 percent</title></rect>
<text class="segnum" x="276.4" y="200.5" text-anchor="middle">36</text>
<rect x="360.3" y="172" width="128.9" height="48" fill="#d1477a"><title>United States. Meat, dairy, eggs, 1961: 27.9 percent</title></rect>
<text class="segnum" x="424.7" y="200.5" text-anchor="middle">28</text>
<rect x="489.2" y="172" width="23.1" height="48" fill="#12a594"><title>United States. Fruits and vegetables, 1961: 5.0 percent</title></rect>
<text class="segnum" x="500.7" y="200.5" text-anchor="middle">5</text>
<rect x="512.3" y="172" width="21.3" height="48" fill="#8b94a3"><title>United States. Alcohol and other, 1961: 4.6 percent</title></rect>
<text class="segnum" x="522.9" y="200.5" text-anchor="middle">5</text>
<line class="axisl" x1="187.5" y1="220" x2="187.5" y2="224"/>
<line class="axisl" x1="303.0" y1="220" x2="303.0" y2="224"/>
<line class="axisl" x1="418.5" y1="220" x2="418.5" y2="224"/>
<text class="yr" x="28" y="292.0">2023</text>
<rect x="72.0" y="264" width="115.5" height="48" fill="#8a7a4e"><title>United States. Staple plants, 2023: 25.0 percent</title></rect>
<text class="segnum" x="129.8" y="292.5" text-anchor="middle">25</text>
<rect x="187.5" y="264" width="187.1" height="48" fill="#e0862b"><title>United States. Oils and sugar, 2023: 40.5 percent</title></rect>
<text class="segnum" x="281.1" y="292.5" text-anchor="middle">40</text>
<rect x="374.6" y="264" width="113.2" height="48" fill="#d1477a"><title>United States. Meat, dairy, eggs, 2023: 24.5 percent</title></rect>
<text class="segnum" x="431.2" y="292.5" text-anchor="middle">24</text>
<rect x="487.8" y="264" width="26.3" height="48" fill="#12a594"><title>United States. Fruits and vegetables, 2023: 5.7 percent</title></rect>
<text class="segnum" x="501.0" y="292.5" text-anchor="middle">6</text>
<rect x="514.1" y="264" width="20.3" height="48" fill="#8b94a3"><title>United States. Alcohol and other, 2023: 4.4 percent</title></rect>
<text class="segnum" x="524.3" y="292.5" text-anchor="middle">4</text>
<line class="axisl" x1="187.5" y1="312" x2="187.5" y2="316"/>
<line class="axisl" x1="303.0" y1="312" x2="303.0" y2="316"/>
<line class="axisl" x1="418.5" y1="312" x2="418.5" y2="316"/>
<line class="axisl" x1="72" y1="350" x2="534" y2="350"/>
<line class="axisl" x1="72.0" y1="350" x2="72.0" y2="355"/>
<text class="tick2" x="72.0" y="370" text-anchor="middle">0</text>
<line class="axisl" x1="187.5" y1="350" x2="187.5" y2="355"/>
<text class="tick2" x="187.5" y="370" text-anchor="middle">25</text>
<line class="axisl" x1="303.0" y1="350" x2="303.0" y2="355"/>
<text class="tick2" x="303.0" y="370" text-anchor="middle">50</text>
<line class="axisl" x1="418.5" y1="350" x2="418.5" y2="355"/>
<text class="tick2" x="418.5" y="370" text-anchor="middle">75</text>
<line class="axisl" x1="534.0" y1="350" x2="534.0" y2="355"/>
<text class="tick2" x="534.0" y="370" text-anchor="middle">100%</text>
<text class="cty" x="580" y="148">United Kingdom</text>
<text class="yr" x="580" y="200.0">1961</text>
<rect x="624.0" y="172" width="139.1" height="48" fill="#8a7a4e"><title>United Kingdom. Staple plants, 1961: 30.1 percent</title></rect>
<text class="segnum" x="693.5" y="200.5" text-anchor="middle">30</text>
<rect x="763.1" y="172" width="158.5" height="48" fill="#e0862b"><title>United Kingdom. Oils and sugar, 1961: 34.3 percent</title></rect>
<text class="segnum" x="842.3" y="200.5" text-anchor="middle">34</text>
<rect x="921.5" y="172" width="124.7" height="48" fill="#d1477a"><title>United Kingdom. Meat, dairy, eggs, 1961: 27.0 percent</title></rect>
<text class="segnum" x="983.9" y="200.5" text-anchor="middle">27</text>
<rect x="1046.3" y="172" width="16.2" height="48" fill="#12a594"><title>United Kingdom. Fruits and vegetables, 1961: 3.5 percent</title></rect>
<rect x="1062.4" y="172" width="23.6" height="48" fill="#8b94a3"><title>United Kingdom. Alcohol and other, 1961: 5.1 percent</title></rect>
<text class="segnum" x="1074.2" y="200.5" text-anchor="middle">5</text>
<line x1="1054.4" y1="221.0" x2="1054.4" y2="227.0" stroke="#12a594" stroke-width="1.4"/>
<text class="segsm" x="1054.4" y="236.0" text-anchor="middle" fill="#12a594">4</text>
<line class="axisl" x1="739.5" y1="220" x2="739.5" y2="224"/>
<line class="axisl" x1="855.0" y1="220" x2="855.0" y2="224"/>
<line class="axisl" x1="970.5" y1="220" x2="970.5" y2="224"/>
<text class="yr" x="580" y="292.0">2023</text>
<rect x="624.0" y="264" width="155.7" height="48" fill="#8a7a4e"><title>United Kingdom. Staple plants, 2023: 33.7 percent</title></rect>
<text class="segnum" x="701.8" y="292.5" text-anchor="middle">34</text>
<rect x="779.7" y="264" width="135.8" height="48" fill="#e0862b"><title>United Kingdom. Oils and sugar, 2023: 29.4 percent</title></rect>
<text class="segnum" x="847.6" y="292.5" text-anchor="middle">29</text>
<rect x="915.5" y="264" width="109.5" height="48" fill="#d1477a"><title>United Kingdom. Meat, dairy, eggs, 2023: 23.7 percent</title></rect>
<text class="segnum" x="970.3" y="292.5" text-anchor="middle">24</text>
<rect x="1025.0" y="264" width="24.5" height="48" fill="#12a594"><title>United Kingdom. Fruits and vegetables, 2023: 5.3 percent</title></rect>
<text class="segnum" x="1037.3" y="292.5" text-anchor="middle">5</text>
<rect x="1049.5" y="264" width="37.0" height="48" fill="#8b94a3"><title>United Kingdom. Alcohol and other, 2023: 8.0 percent</title></rect>
<text class="segnum" x="1068.0" y="292.5" text-anchor="middle">8</text>
<line class="axisl" x1="739.5" y1="312" x2="739.5" y2="316"/>
<line class="axisl" x1="855.0" y1="312" x2="855.0" y2="316"/>
<line class="axisl" x1="970.5" y1="312" x2="970.5" y2="316"/>
<line class="axisl" x1="624" y1="350" x2="1086" y2="350"/>
<line class="axisl" x1="624.0" y1="350" x2="624.0" y2="355"/>
<text class="tick2" x="624.0" y="370" text-anchor="middle">0</text>
<line class="axisl" x1="739.5" y1="350" x2="739.5" y2="355"/>
<text class="tick2" x="739.5" y="370" text-anchor="middle">25</text>
<line class="axisl" x1="855.0" y1="350" x2="855.0" y2="355"/>
<text class="tick2" x="855.0" y="370" text-anchor="middle">50</text>
<line class="axisl" x1="970.5" y1="350" x2="970.5" y2="355"/>
<text class="tick2" x="970.5" y="370" text-anchor="middle">75</text>
<line class="axisl" x1="1086.0" y1="350" x2="1086.0" y2="355"/>
<text class="tick2" x="1086.0" y="370" text-anchor="middle">100%</text>
<text class="cty" x="28" y="434">France</text>
<text class="yr" x="28" y="486.0">1961</text>
<rect x="72.0" y="458" width="171.4" height="48" fill="#8a7a4e"><title>France. Staple plants, 1961: 37.1 percent</title></rect>
<text class="segnum" x="157.7" y="486.5" text-anchor="middle">37</text>
<rect x="243.4" y="458" width="100.7" height="48" fill="#e0862b"><title>France. Oils and sugar, 1961: 21.8 percent</title></rect>
<text class="segnum" x="293.8" y="486.5" text-anchor="middle">22</text>
<rect x="344.1" y="458" width="115.5" height="48" fill="#d1477a"><title>France. Meat, dairy, eggs, 1961: 25.0 percent</title></rect>
<text class="segnum" x="401.9" y="486.5" text-anchor="middle">25</text>
<rect x="459.6" y="458" width="25.4" height="48" fill="#12a594"><title>France. Fruits and vegetables, 1961: 5.5 percent</title></rect>
<text class="segnum" x="472.3" y="486.5" text-anchor="middle">6</text>
<rect x="485.0" y="458" width="49.0" height="48" fill="#8b94a3"><title>France. Alcohol and other, 1961: 10.6 percent</title></rect>
<text class="segnum" x="509.5" y="486.5" text-anchor="middle">11</text>
<line class="axisl" x1="187.5" y1="506" x2="187.5" y2="510"/>
<line class="axisl" x1="303.0" y1="506" x2="303.0" y2="510"/>
<line class="axisl" x1="418.5" y1="506" x2="418.5" y2="510"/>
<text class="yr" x="28" y="578.0">2023</text>
<rect x="72.0" y="550" width="134.4" height="48" fill="#8a7a4e"><title>France. Staple plants, 2023: 29.1 percent</title></rect>
<text class="segnum" x="139.2" y="578.5" text-anchor="middle">29</text>
<rect x="206.4" y="550" width="145.5" height="48" fill="#e0862b"><title>France. Oils and sugar, 2023: 31.5 percent</title></rect>
<text class="segnum" x="279.2" y="578.5" text-anchor="middle">32</text>
<rect x="352.0" y="550" width="114.1" height="48" fill="#d1477a"><title>France. Meat, dairy, eggs, 2023: 24.7 percent</title></rect>
<text class="segnum" x="409.0" y="578.5" text-anchor="middle">25</text>
<rect x="466.1" y="550" width="25.9" height="48" fill="#12a594"><title>France. Fruits and vegetables, 2023: 5.6 percent</title></rect>
<text class="segnum" x="479.0" y="578.5" text-anchor="middle">6</text>
<rect x="492.0" y="550" width="42.5" height="48" fill="#8b94a3"><title>France. Alcohol and other, 2023: 9.2 percent</title></rect>
<text class="segnum" x="513.2" y="578.5" text-anchor="middle">9</text>
<line class="axisl" x1="187.5" y1="598" x2="187.5" y2="602"/>
<line class="axisl" x1="303.0" y1="598" x2="303.0" y2="602"/>
<line class="axisl" x1="418.5" y1="598" x2="418.5" y2="602"/>
<line class="axisl" x1="72" y1="636" x2="534" y2="636"/>
<line class="axisl" x1="72.0" y1="636" x2="72.0" y2="641"/>
<text class="tick2" x="72.0" y="656" text-anchor="middle">0</text>
<line class="axisl" x1="187.5" y1="636" x2="187.5" y2="641"/>
<text class="tick2" x="187.5" y="656" text-anchor="middle">25</text>
<line class="axisl" x1="303.0" y1="636" x2="303.0" y2="641"/>
<text class="tick2" x="303.0" y="656" text-anchor="middle">50</text>
<line class="axisl" x1="418.5" y1="636" x2="418.5" y2="641"/>
<text class="tick2" x="418.5" y="656" text-anchor="middle">75</text>
<line class="axisl" x1="534.0" y1="636" x2="534.0" y2="641"/>
<text class="tick2" x="534.0" y="656" text-anchor="middle">100%</text>
<text class="cty" x="580" y="434">Japan</text>
<text class="yr" x="580" y="486.0">1961</text>
<rect x="624.0" y="458" width="310.9" height="48" fill="#8a7a4e"><title>Japan. Staple plants, 1961: 67.3 percent</title></rect>
<text class="segnum" x="779.5" y="486.5" text-anchor="middle">67</text>
<rect x="934.9" y="458" width="75.8" height="48" fill="#e0862b"><title>Japan. Oils and sugar, 1961: 16.4 percent</title></rect>
<text class="segnum" x="972.8" y="486.5" text-anchor="middle">16</text>
<rect x="1010.7" y="458" width="40.7" height="48" fill="#d1477a"><title>Japan. Meat, dairy, eggs, 1961: 8.8 percent</title></rect>
<text class="segnum" x="1031.0" y="486.5" text-anchor="middle">9</text>
<rect x="1051.3" y="458" width="17.1" height="48" fill="#12a594"><title>Japan. Fruits and vegetables, 1961: 3.7 percent</title></rect>
<rect x="1068.4" y="458" width="17.6" height="48" fill="#8b94a3"><title>Japan. Alcohol and other, 1961: 3.8 percent</title></rect>
<line x1="1059.9" y1="507.0" x2="1059.9" y2="513.0" stroke="#12a594" stroke-width="1.4"/>
<text class="segsm" x="1059.9" y="522.0" text-anchor="middle" fill="#12a594">4</text>
<line x1="1077.2" y1="507.0" x2="1077.2" y2="513.0" stroke="#8b94a3" stroke-width="1.4"/>
<text class="segsm" x="1077.2" y="522.0" text-anchor="middle" fill="#8b94a3">4</text>
<line class="axisl" x1="739.5" y1="506" x2="739.5" y2="510"/>
<line class="axisl" x1="855.0" y1="506" x2="855.0" y2="510"/>
<line class="axisl" x1="970.5" y1="506" x2="970.5" y2="510"/>
<text class="yr" x="580" y="578.0">2022</text>
<rect x="624.0" y="550" width="181.6" height="48" fill="#8a7a4e"><title>Japan. Staple plants, 2022: 39.3 percent</title></rect>
<text class="segnum" x="714.8" y="578.5" text-anchor="middle">39</text>
<rect x="805.6" y="550" width="142.3" height="48" fill="#e0862b"><title>Japan. Oils and sugar, 2022: 30.8 percent</title></rect>
<text class="segnum" x="876.7" y="578.5" text-anchor="middle">31</text>
<rect x="947.9" y="550" width="91.9" height="48" fill="#d1477a"><title>Japan. Meat, dairy, eggs, 2022: 19.9 percent</title></rect>
<text class="segnum" x="993.8" y="578.5" text-anchor="middle">20</text>
<rect x="1039.8" y="550" width="22.6" height="48" fill="#12a594"><title>Japan. Fruits and vegetables, 2022: 4.9 percent</title></rect>
<text class="segnum" x="1051.1" y="578.5" text-anchor="middle">5</text>
<rect x="1062.4" y="550" width="23.6" height="48" fill="#8b94a3"><title>Japan. Alcohol and other, 2022: 5.1 percent</title></rect>
<text class="segnum" x="1074.2" y="578.5" text-anchor="middle">5</text>
<line class="axisl" x1="739.5" y1="598" x2="739.5" y2="602"/>
<line class="axisl" x1="855.0" y1="598" x2="855.0" y2="602"/>
<line class="axisl" x1="970.5" y1="598" x2="970.5" y2="602"/>
<line class="axisl" x1="624" y1="636" x2="1086" y2="636"/>
<line class="axisl" x1="624.0" y1="636" x2="624.0" y2="641"/>
<text class="tick2" x="624.0" y="656" text-anchor="middle">0</text>
<line class="axisl" x1="739.5" y1="636" x2="739.5" y2="641"/>
<text class="tick2" x="739.5" y="656" text-anchor="middle">25</text>
<line class="axisl" x1="855.0" y1="636" x2="855.0" y2="641"/>
<text class="tick2" x="855.0" y="656" text-anchor="middle">50</text>
<line class="axisl" x1="970.5" y1="636" x2="970.5" y2="641"/>
<text class="tick2" x="970.5" y="656" text-anchor="middle">75</text>
<line class="axisl" x1="1086.0" y1="636" x2="1086.0" y2="641"/>
<text class="tick2" x="1086.0" y="656" text-anchor="middle">100%</text>
<text class="cty" x="28" y="720">South Korea</text>
<text class="yr" x="28" y="772.0">1961</text>
<rect x="72.0" y="744" width="401.0" height="48" fill="#8a7a4e"><title>South Korea. Staple plants, 1961: 86.8 percent</title></rect>
<text class="segnum" x="272.5" y="772.5" text-anchor="middle">87</text>
<rect x="473.0" y="744" width="21.7" height="48" fill="#e0862b"><title>South Korea. Oils and sugar, 1961: 4.7 percent</title></rect>
<text class="segnum" x="483.9" y="772.5" text-anchor="middle">5</text>
<rect x="494.7" y="744" width="10.2" height="48" fill="#d1477a"><title>South Korea. Meat, dairy, eggs, 1961: 2.2 percent</title></rect>
<rect x="504.9" y="744" width="13.9" height="48" fill="#12a594"><title>South Korea. Fruits and vegetables, 1961: 3.0 percent</title></rect>
<rect x="518.8" y="744" width="15.2" height="48" fill="#8b94a3"><title>South Korea. Alcohol and other, 1961: 3.3 percent</title></rect>
<line x1="499.8" y1="793.0" x2="499.8" y2="799.0" stroke="#d1477a" stroke-width="1.4"/>
<text class="segsm" x="499.8" y="808.0" text-anchor="middle" fill="#d1477a">2</text>
<line x1="511.8" y1="793.0" x2="511.8" y2="812.0" stroke="#12a594" stroke-width="1.4"/>
<text class="segsm" x="511.8" y="821.0" text-anchor="middle" fill="#12a594">3</text>
<line x1="526.4" y1="793.0" x2="526.4" y2="799.0" stroke="#8b94a3" stroke-width="1.4"/>
<text class="segsm" x="526.4" y="808.0" text-anchor="middle" fill="#8b94a3">3</text>
<line class="axisl" x1="187.5" y1="792" x2="187.5" y2="796"/>
<line class="axisl" x1="303.0" y1="792" x2="303.0" y2="796"/>
<line class="axisl" x1="418.5" y1="792" x2="418.5" y2="796"/>
<text class="yr" x="28" y="864.0">2023</text>
<rect x="72.0" y="836" width="155.2" height="48" fill="#8a7a4e"><title>South Korea. Staple plants, 2023: 33.6 percent</title></rect>
<text class="segnum" x="149.6" y="864.5" text-anchor="middle">34</text>
<rect x="227.2" y="836" width="175.1" height="48" fill="#e0862b"><title>South Korea. Oils and sugar, 2023: 37.9 percent</title></rect>
<text class="segnum" x="314.8" y="864.5" text-anchor="middle">38</text>
<rect x="402.3" y="836" width="74.4" height="48" fill="#d1477a"><title>South Korea. Meat, dairy, eggs, 2023: 16.1 percent</title></rect>
<text class="segnum" x="439.5" y="864.5" text-anchor="middle">16</text>
<rect x="476.7" y="836" width="29.1" height="48" fill="#12a594"><title>South Korea. Fruits and vegetables, 2023: 6.3 percent</title></rect>
<text class="segnum" x="491.3" y="864.5" text-anchor="middle">6</text>
<rect x="505.8" y="836" width="28.2" height="48" fill="#8b94a3"><title>South Korea. Alcohol and other, 2023: 6.1 percent</title></rect>
<text class="segnum" x="519.9" y="864.5" text-anchor="middle">6</text>
<line class="axisl" x1="187.5" y1="884" x2="187.5" y2="888"/>
<line class="axisl" x1="303.0" y1="884" x2="303.0" y2="888"/>
<line class="axisl" x1="418.5" y1="884" x2="418.5" y2="888"/>
<line class="axisl" x1="72" y1="922" x2="534" y2="922"/>
<line class="axisl" x1="72.0" y1="922" x2="72.0" y2="927"/>
<text class="tick2" x="72.0" y="942" text-anchor="middle">0</text>
<line class="axisl" x1="187.5" y1="922" x2="187.5" y2="927"/>
<text class="tick2" x="187.5" y="942" text-anchor="middle">25</text>
<line class="axisl" x1="303.0" y1="922" x2="303.0" y2="927"/>
<text class="tick2" x="303.0" y="942" text-anchor="middle">50</text>
<line class="axisl" x1="418.5" y1="922" x2="418.5" y2="927"/>
<text class="tick2" x="418.5" y="942" text-anchor="middle">75</text>
<line class="axisl" x1="534.0" y1="922" x2="534.0" y2="927"/>
<text class="tick2" x="534.0" y="942" text-anchor="middle">100%</text>
<text class="cty" x="580" y="720">China</text>
<text class="yr" x="580" y="772.0">1961</text>
<rect x="624.0" y="744" width="390.9" height="48" fill="#8a7a4e"><title>China. Staple plants, 1961: 84.6 percent</title></rect>
<text class="segnum" x="819.4" y="772.5" text-anchor="middle">85</text>
<rect x="1014.9" y="744" width="31.4" height="48" fill="#e0862b"><title>China. Oils and sugar, 1961: 6.8 percent</title></rect>
<text class="segnum" x="1030.6" y="772.5" text-anchor="middle">7</text>
<rect x="1046.3" y="744" width="15.2" height="48" fill="#d1477a"><title>China. Meat, dairy, eggs, 1961: 3.3 percent</title></rect>
<rect x="1061.5" y="744" width="21.7" height="48" fill="#12a594"><title>China. Fruits and vegetables, 1961: 4.7 percent</title></rect>
<text class="segnum" x="1072.4" y="772.5" text-anchor="middle">5</text>
<rect x="1083.2" y="744" width="2.8" height="48" fill="#8b94a3"><title>China. Alcohol and other, 1961: 0.6 percent</title></rect>
<line x1="1053.9" y1="793.0" x2="1053.9" y2="799.0" stroke="#d1477a" stroke-width="1.4"/>
<text class="segsm" x="1053.9" y="808.0" text-anchor="middle" fill="#d1477a">3</text>
<line x1="1084.6" y1="793.0" x2="1084.6" y2="799.0" stroke="#8b94a3" stroke-width="1.4"/>
<text class="segsm" x="1084.6" y="808.0" text-anchor="middle" fill="#8b94a3">1</text>
<line class="axisl" x1="739.5" y1="792" x2="739.5" y2="796"/>
<line class="axisl" x1="855.0" y1="792" x2="855.0" y2="796"/>
<line class="axisl" x1="970.5" y1="792" x2="970.5" y2="796"/>
<text class="yr" x="580" y="864.0">2023</text>
<rect x="624.0" y="836" width="232.4" height="48" fill="#8a7a4e"><title>China. Staple plants, 2023: 50.3 percent</title></rect>
<text class="segnum" x="740.2" y="864.5" text-anchor="middle">50</text>
<rect x="856.4" y="836" width="68.4" height="48" fill="#e0862b"><title>China. Oils and sugar, 2023: 14.8 percent</title></rect>
<text class="segnum" x="890.6" y="864.5" text-anchor="middle">15</text>
<rect x="924.8" y="836" width="83.2" height="48" fill="#d1477a"><title>China. Meat, dairy, eggs, 2023: 18.0 percent</title></rect>
<text class="segnum" x="966.3" y="864.5" text-anchor="middle">18</text>
<rect x="1007.9" y="836" width="60.5" height="48" fill="#12a594"><title>China. Fruits and vegetables, 2023: 13.1 percent</title></rect>
<text class="segnum" x="1038.2" y="864.5" text-anchor="middle">13</text>
<rect x="1068.4" y="836" width="17.6" height="48" fill="#8b94a3"><title>China. Alcohol and other, 2023: 3.8 percent</title></rect>
<line x1="1077.2" y1="885.0" x2="1077.2" y2="891.0" stroke="#8b94a3" stroke-width="1.4"/>
<text class="segsm" x="1077.2" y="900.0" text-anchor="middle" fill="#8b94a3">4</text>
<line class="axisl" x1="739.5" y1="884" x2="739.5" y2="888"/>
<line class="axisl" x1="855.0" y1="884" x2="855.0" y2="888"/>
<line class="axisl" x1="970.5" y1="884" x2="970.5" y2="888"/>
<line class="axisl" x1="624" y1="922" x2="1086" y2="922"/>
<line class="axisl" x1="624.0" y1="922" x2="624.0" y2="927"/>
<text class="tick2" x="624.0" y="942" text-anchor="middle">0</text>
<line class="axisl" x1="739.5" y1="922" x2="739.5" y2="927"/>
<text class="tick2" x="739.5" y="942" text-anchor="middle">25</text>
<line class="axisl" x1="855.0" y1="922" x2="855.0" y2="927"/>
<text class="tick2" x="855.0" y="942" text-anchor="middle">50</text>
<line class="axisl" x1="970.5" y1="922" x2="970.5" y2="927"/>
<text class="tick2" x="970.5" y="942" text-anchor="middle">75</text>
<line class="axisl" x1="1086.0" y1="922" x2="1086.0" y2="927"/>
<text class="tick2" x="1086.0" y="942" text-anchor="middle">100%</text>
<text class="cty" x="28" y="1006">Brazil</text>
<text class="yr" x="28" y="1058.0">1961</text>
<rect x="72.0" y="1030" width="260.6" height="48" fill="#8a7a4e"><title>Brazil. Staple plants, 1961: 56.4 percent</title></rect>
<text class="segnum" x="202.3" y="1058.5" text-anchor="middle">56</text>
<rect x="332.6" y="1030" width="123.8" height="48" fill="#e0862b"><title>Brazil. Oils and sugar, 1961: 26.8 percent</title></rect>
<text class="segnum" x="394.5" y="1058.5" text-anchor="middle">27</text>
<rect x="456.4" y="1030" width="48.5" height="48" fill="#d1477a"><title>Brazil. Meat, dairy, eggs, 1961: 10.5 percent</title></rect>
<text class="segnum" x="480.6" y="1058.5" text-anchor="middle">10</text>
<rect x="504.9" y="1030" width="21.7" height="48" fill="#12a594"><title>Brazil. Fruits and vegetables, 1961: 4.7 percent</title></rect>
<text class="segnum" x="515.8" y="1058.5" text-anchor="middle">5</text>
<rect x="526.6" y="1030" width="6.9" height="48" fill="#8b94a3"><title>Brazil. Alcohol and other, 1961: 1.5 percent</title></rect>
<line x1="530.1" y1="1079.0" x2="530.1" y2="1085.0" stroke="#8b94a3" stroke-width="1.4"/>
<text class="segsm" x="530.1" y="1094.0" text-anchor="middle" fill="#8b94a3">2</text>
<line class="axisl" x1="187.5" y1="1078" x2="187.5" y2="1082"/>
<line class="axisl" x1="303.0" y1="1078" x2="303.0" y2="1082"/>
<line class="axisl" x1="418.5" y1="1078" x2="418.5" y2="1082"/>
<text class="yr" x="28" y="1150.0">2023</text>
<rect x="72.0" y="1122" width="155.7" height="48" fill="#8a7a4e"><title>Brazil. Staple plants, 2023: 33.7 percent</title></rect>
<text class="segnum" x="149.8" y="1150.5" text-anchor="middle">34</text>
<rect x="227.7" y="1122" width="152.9" height="48" fill="#e0862b"><title>Brazil. Oils and sugar, 2023: 33.1 percent</title></rect>
<text class="segnum" x="304.2" y="1150.5" text-anchor="middle">33</text>
<rect x="380.6" y="1122" width="111.3" height="48" fill="#d1477a"><title>Brazil. Meat, dairy, eggs, 2023: 24.1 percent</title></rect>
<text class="segnum" x="436.3" y="1150.5" text-anchor="middle">24</text>
<rect x="492.0" y="1122" width="23.6" height="48" fill="#12a594"><title>Brazil. Fruits and vegetables, 2023: 5.1 percent</title></rect>
<text class="segnum" x="503.7" y="1150.5" text-anchor="middle">5</text>
<rect x="515.5" y="1122" width="18.5" height="48" fill="#8b94a3"><title>Brazil. Alcohol and other, 2023: 4.0 percent</title></rect>
<line x1="524.8" y1="1171.0" x2="524.8" y2="1177.0" stroke="#8b94a3" stroke-width="1.4"/>
<text class="segsm" x="524.8" y="1186.0" text-anchor="middle" fill="#8b94a3">4</text>
<line class="axisl" x1="187.5" y1="1170" x2="187.5" y2="1174"/>
<line class="axisl" x1="303.0" y1="1170" x2="303.0" y2="1174"/>
<line class="axisl" x1="418.5" y1="1170" x2="418.5" y2="1174"/>
<line class="axisl" x1="72" y1="1208" x2="534" y2="1208"/>
<line class="axisl" x1="72.0" y1="1208" x2="72.0" y2="1213"/>
<text class="tick2" x="72.0" y="1228" text-anchor="middle">0</text>
<line class="axisl" x1="187.5" y1="1208" x2="187.5" y2="1213"/>
<text class="tick2" x="187.5" y="1228" text-anchor="middle">25</text>
<line class="axisl" x1="303.0" y1="1208" x2="303.0" y2="1213"/>
<text class="tick2" x="303.0" y="1228" text-anchor="middle">50</text>
<line class="axisl" x1="418.5" y1="1208" x2="418.5" y2="1213"/>
<text class="tick2" x="418.5" y="1228" text-anchor="middle">75</text>
<line class="axisl" x1="534.0" y1="1208" x2="534.0" y2="1213"/>
<text class="tick2" x="534.0" y="1228" text-anchor="middle">100%</text>
<text class="cty" x="580" y="1006">Mexico</text>
<text class="yr" x="580" y="1058.0">1961</text>
<rect x="624.0" y="1030" width="301.2" height="48" fill="#8a7a4e"><title>Mexico. Staple plants, 1961: 65.2 percent</title></rect>
<text class="segnum" x="774.6" y="1058.5" text-anchor="middle">65</text>
<rect x="925.2" y="1030" width="87.3" height="48" fill="#e0862b"><title>Mexico. Oils and sugar, 1961: 18.9 percent</title></rect>
<text class="segnum" x="968.9" y="1058.5" text-anchor="middle">19</text>
<rect x="1012.5" y="1030" width="49.4" height="48" fill="#d1477a"><title>Mexico. Meat, dairy, eggs, 1961: 10.7 percent</title></rect>
<text class="segnum" x="1037.3" y="1058.5" text-anchor="middle">11</text>
<rect x="1062.0" y="1030" width="15.2" height="48" fill="#12a594"><title>Mexico. Fruits and vegetables, 1961: 3.3 percent</title></rect>
<rect x="1077.2" y="1030" width="8.8" height="48" fill="#8b94a3"><title>Mexico. Alcohol and other, 1961: 1.9 percent</title></rect>
<line x1="1069.6" y1="1079.0" x2="1069.6" y2="1085.0" stroke="#12a594" stroke-width="1.4"/>
<text class="segsm" x="1069.6" y="1094.0" text-anchor="middle" fill="#12a594">3</text>
<line x1="1081.6" y1="1079.0" x2="1081.6" y2="1098.0" stroke="#8b94a3" stroke-width="1.4"/>
<text class="segsm" x="1081.6" y="1107.0" text-anchor="middle" fill="#8b94a3">2</text>
<line class="axisl" x1="739.5" y1="1078" x2="739.5" y2="1082"/>
<line class="axisl" x1="855.0" y1="1078" x2="855.0" y2="1082"/>
<line class="axisl" x1="970.5" y1="1078" x2="970.5" y2="1082"/>
<text class="yr" x="580" y="1150.0">2023</text>
<rect x="624.0" y="1122" width="200.0" height="48" fill="#8a7a4e"><title>Mexico. Staple plants, 2023: 43.3 percent</title></rect>
<text class="segnum" x="724.0" y="1150.5" text-anchor="middle">43</text>
<rect x="824.0" y="1122" width="121.0" height="48" fill="#e0862b"><title>Mexico. Oils and sugar, 2023: 26.2 percent</title></rect>
<text class="segnum" x="884.6" y="1150.5" text-anchor="middle">26</text>
<rect x="945.1" y="1122" width="92.4" height="48" fill="#d1477a"><title>Mexico. Meat, dairy, eggs, 2023: 20.0 percent</title></rect>
<text class="segnum" x="991.3" y="1150.5" text-anchor="middle">20</text>
<rect x="1037.5" y="1122" width="31.9" height="48" fill="#12a594"><title>Mexico. Fruits and vegetables, 2023: 6.9 percent</title></rect>
<text class="segnum" x="1053.4" y="1150.5" text-anchor="middle">7</text>
<rect x="1069.4" y="1122" width="16.6" height="48" fill="#8b94a3"><title>Mexico. Alcohol and other, 2023: 3.6 percent</title></rect>
<line x1="1077.7" y1="1171.0" x2="1077.7" y2="1177.0" stroke="#8b94a3" stroke-width="1.4"/>
<text class="segsm" x="1077.7" y="1186.0" text-anchor="middle" fill="#8b94a3">4</text>
<line class="axisl" x1="739.5" y1="1170" x2="739.5" y2="1174"/>
<line class="axisl" x1="855.0" y1="1170" x2="855.0" y2="1174"/>
<line class="axisl" x1="970.5" y1="1170" x2="970.5" y2="1174"/>
<line class="axisl" x1="624" y1="1208" x2="1086" y2="1208"/>
<line class="axisl" x1="624.0" y1="1208" x2="624.0" y2="1213"/>
<text class="tick2" x="624.0" y="1228" text-anchor="middle">0</text>
<line class="axisl" x1="739.5" y1="1208" x2="739.5" y2="1213"/>
<text class="tick2" x="739.5" y="1228" text-anchor="middle">25</text>
<line class="axisl" x1="855.0" y1="1208" x2="855.0" y2="1213"/>
<text class="tick2" x="855.0" y="1228" text-anchor="middle">50</text>
<line class="axisl" x1="970.5" y1="1208" x2="970.5" y2="1213"/>
<text class="tick2" x="970.5" y="1228" text-anchor="middle">75</text>
<line class="axisl" x1="1086.0" y1="1208" x2="1086.0" y2="1213"/>
<text class="tick2" x="1086.0" y="1228" text-anchor="middle">100%</text>
<text class="cty" x="28" y="1292">Egypt</text>
<text class="yr" x="28" y="1344.0">1961</text>
<rect x="72.0" y="1316" width="335.9" height="48" fill="#8a7a4e"><title>Egypt. Staple plants, 1961: 72.7 percent</title></rect>
<text class="segnum" x="239.9" y="1344.5" text-anchor="middle">73</text>
<rect x="407.9" y="1316" width="69.8" height="48" fill="#e0862b"><title>Egypt. Oils and sugar, 1961: 15.1 percent</title></rect>
<text class="segnum" x="442.8" y="1344.5" text-anchor="middle">15</text>
<rect x="477.6" y="1316" width="21.7" height="48" fill="#d1477a"><title>Egypt. Meat, dairy, eggs, 1961: 4.7 percent</title></rect>
<text class="segnum" x="488.5" y="1344.5" text-anchor="middle">5</text>
<rect x="499.3" y="1316" width="31.9" height="48" fill="#12a594"><title>Egypt. Fruits and vegetables, 1961: 6.9 percent</title></rect>
<text class="segnum" x="515.3" y="1344.5" text-anchor="middle">7</text>
<rect x="531.2" y="1316" width="2.3" height="48" fill="#8b94a3"><title>Egypt. Alcohol and other, 1961: 0.5 percent</title></rect>
<line x1="532.4" y1="1365.0" x2="532.4" y2="1371.0" stroke="#8b94a3" stroke-width="1.4"/>
<text class="segsm" x="532.4" y="1380.0" text-anchor="middle" fill="#8b94a3">0</text>
<line class="axisl" x1="187.5" y1="1364" x2="187.5" y2="1368"/>
<line class="axisl" x1="303.0" y1="1364" x2="303.0" y2="1368"/>
<line class="axisl" x1="418.5" y1="1364" x2="418.5" y2="1368"/>
<text class="yr" x="28" y="1436.0">2023</text>
<rect x="72.0" y="1408" width="305.8" height="48" fill="#8a7a4e"><title>Egypt. Staple plants, 2023: 66.2 percent</title></rect>
<text class="segnum" x="224.9" y="1436.5" text-anchor="middle">66</text>
<rect x="377.8" y="1408" width="71.6" height="48" fill="#e0862b"><title>Egypt. Oils and sugar, 2023: 15.5 percent</title></rect>
<text class="segnum" x="413.6" y="1436.5" text-anchor="middle">16</text>
<rect x="449.5" y="1408" width="38.8" height="48" fill="#d1477a"><title>Egypt. Meat, dairy, eggs, 2023: 8.4 percent</title></rect>
<text class="segnum" x="468.9" y="1436.5" text-anchor="middle">8</text>
<rect x="488.3" y="1408" width="43.0" height="48" fill="#12a594"><title>Egypt. Fruits and vegetables, 2023: 9.3 percent</title></rect>
<text class="segnum" x="509.7" y="1436.5" text-anchor="middle">9</text>
<rect x="531.2" y="1408" width="2.8" height="48" fill="#8b94a3"><title>Egypt. Alcohol and other, 2023: 0.6 percent</title></rect>
<line x1="532.6" y1="1457.0" x2="532.6" y2="1463.0" stroke="#8b94a3" stroke-width="1.4"/>
<text class="segsm" x="532.6" y="1472.0" text-anchor="middle" fill="#8b94a3">1</text>
<line class="axisl" x1="187.5" y1="1456" x2="187.5" y2="1460"/>
<line class="axisl" x1="303.0" y1="1456" x2="303.0" y2="1460"/>
<line class="axisl" x1="418.5" y1="1456" x2="418.5" y2="1460"/>
<line class="axisl" x1="72" y1="1494" x2="534" y2="1494"/>
<line class="axisl" x1="72.0" y1="1494" x2="72.0" y2="1499"/>
<text class="tick2" x="72.0" y="1514" text-anchor="middle">0</text>
<line class="axisl" x1="187.5" y1="1494" x2="187.5" y2="1499"/>
<text class="tick2" x="187.5" y="1514" text-anchor="middle">25</text>
<line class="axisl" x1="303.0" y1="1494" x2="303.0" y2="1499"/>
<text class="tick2" x="303.0" y="1514" text-anchor="middle">50</text>
<line class="axisl" x1="418.5" y1="1494" x2="418.5" y2="1499"/>
<text class="tick2" x="418.5" y="1514" text-anchor="middle">75</text>
<line class="axisl" x1="534.0" y1="1494" x2="534.0" y2="1499"/>
<text class="tick2" x="534.0" y="1514" text-anchor="middle">100%</text>
<text class="cty" x="580" y="1292">India</text>
<text class="yr" x="580" y="1344.0">1961</text>
<rect x="624.0" y="1316" width="346.0" height="48" fill="#8a7a4e"><title>India. Staple plants, 1961: 74.9 percent</title></rect>
<text class="segnum" x="797.0" y="1344.5" text-anchor="middle">75</text>
<rect x="970.0" y="1316" width="79.9" height="48" fill="#e0862b"><title>India. Oils and sugar, 1961: 17.3 percent</title></rect>
<text class="segnum" x="1010.0" y="1344.5" text-anchor="middle">17</text>
<rect x="1050.0" y="1316" width="19.9" height="48" fill="#d1477a"><title>India. Meat, dairy, eggs, 1961: 4.3 percent</title></rect>
<rect x="1069.8" y="1316" width="12.5" height="48" fill="#12a594"><title>India. Fruits and vegetables, 1961: 2.7 percent</title></rect>
<rect x="1082.3" y="1316" width="3.2" height="48" fill="#8b94a3"><title>India. Alcohol and other, 1961: 0.7 percent</title></rect>
<line x1="1059.9" y1="1365.0" x2="1059.9" y2="1371.0" stroke="#d1477a" stroke-width="1.4"/>
<text class="segsm" x="1059.9" y="1380.0" text-anchor="middle" fill="#d1477a">4</text>
<line x1="1076.1" y1="1365.0" x2="1076.1" y2="1371.0" stroke="#12a594" stroke-width="1.4"/>
<text class="segsm" x="1076.1" y="1380.0" text-anchor="middle" fill="#12a594">3</text>
<line x1="1083.9" y1="1365.0" x2="1083.9" y2="1384.0" stroke="#8b94a3" stroke-width="1.4"/>
<text class="segsm" x="1083.9" y="1393.0" text-anchor="middle" fill="#8b94a3">1</text>
<line class="axisl" x1="739.5" y1="1364" x2="739.5" y2="1368"/>
<line class="axisl" x1="855.0" y1="1364" x2="855.0" y2="1368"/>
<line class="axisl" x1="970.5" y1="1364" x2="970.5" y2="1368"/>
<text class="yr" x="580" y="1436.0">2023</text>
<rect x="624.0" y="1408" width="269.8" height="48" fill="#8a7a4e"><title>India. Staple plants, 2023: 58.4 percent</title></rect>
<text class="segnum" x="758.9" y="1436.5" text-anchor="middle">58</text>
<rect x="893.8" y="1408" width="105.3" height="48" fill="#e0862b"><title>India. Oils and sugar, 2023: 22.8 percent</title></rect>
<text class="segnum" x="946.5" y="1436.5" text-anchor="middle">23</text>
<rect x="999.1" y="1408" width="48.0" height="48" fill="#d1477a"><title>India. Meat, dairy, eggs, 2023: 10.4 percent</title></rect>
<text class="segnum" x="1023.2" y="1436.5" text-anchor="middle">10</text>
<rect x="1047.2" y="1408" width="28.6" height="48" fill="#12a594"><title>India. Fruits and vegetables, 2023: 6.2 percent</title></rect>
<text class="segnum" x="1061.5" y="1436.5" text-anchor="middle">6</text>
<rect x="1075.8" y="1408" width="9.7" height="48" fill="#8b94a3"><title>India. Alcohol and other, 2023: 2.1 percent</title></rect>
<line x1="1080.7" y1="1457.0" x2="1080.7" y2="1463.0" stroke="#8b94a3" stroke-width="1.4"/>
<text class="segsm" x="1080.7" y="1472.0" text-anchor="middle" fill="#8b94a3">2</text>
<line class="axisl" x1="739.5" y1="1456" x2="739.5" y2="1460"/>
<line class="axisl" x1="855.0" y1="1456" x2="855.0" y2="1460"/>
<line class="axisl" x1="970.5" y1="1456" x2="970.5" y2="1460"/>
<line class="axisl" x1="624" y1="1494" x2="1086" y2="1494"/>
<line class="axisl" x1="624.0" y1="1494" x2="624.0" y2="1499"/>
<text class="tick2" x="624.0" y="1514" text-anchor="middle">0</text>
<line class="axisl" x1="739.5" y1="1494" x2="739.5" y2="1499"/>
<text class="tick2" x="739.5" y="1514" text-anchor="middle">25</text>
<line class="axisl" x1="855.0" y1="1494" x2="855.0" y2="1499"/>
<text class="tick2" x="855.0" y="1514" text-anchor="middle">50</text>
<line class="axisl" x1="970.5" y1="1494" x2="970.5" y2="1499"/>
<text class="tick2" x="970.5" y="1514" text-anchor="middle">75</text>
<line class="axisl" x1="1086.0" y1="1494" x2="1086.0" y2="1499"/>
<text class="tick2" x="1086.0" y="1514" text-anchor="middle">100%</text>
<text class="cty" x="28" y="1578">Nigeria</text>
<text class="yr" x="28" y="1630.0">1961</text>
<rect x="72.0" y="1602" width="305.4" height="48" fill="#8a7a4e"><title>Nigeria. Staple plants, 1961: 66.1 percent</title></rect>
<text class="segnum" x="224.7" y="1630.5" text-anchor="middle">66</text>
<rect x="377.4" y="1602" width="104.9" height="48" fill="#e0862b"><title>Nigeria. Oils and sugar, 1961: 22.7 percent</title></rect>
<text class="segnum" x="429.8" y="1630.5" text-anchor="middle">23</text>
<rect x="482.3" y="1602" width="10.6" height="48" fill="#d1477a"><title>Nigeria. Meat, dairy, eggs, 1961: 2.3 percent</title></rect>
<rect x="492.9" y="1602" width="29.6" height="48" fill="#12a594"><title>Nigeria. Fruits and vegetables, 1961: 6.4 percent</title></rect>
<text class="segnum" x="507.7" y="1630.5" text-anchor="middle">6</text>
<rect x="522.4" y="1602" width="12.0" height="48" fill="#8b94a3"><title>Nigeria. Alcohol and other, 1961: 2.6 percent</title></rect>
<line x1="487.6" y1="1651.0" x2="487.6" y2="1657.0" stroke="#d1477a" stroke-width="1.4"/>
<text class="segsm" x="487.6" y="1666.0" text-anchor="middle" fill="#d1477a">2</text>
<line x1="528.5" y1="1651.0" x2="528.5" y2="1657.0" stroke="#8b94a3" stroke-width="1.4"/>
<text class="segsm" x="528.5" y="1666.0" text-anchor="middle" fill="#8b94a3">3</text>
<line class="axisl" x1="187.5" y1="1650" x2="187.5" y2="1654"/>
<line class="axisl" x1="303.0" y1="1650" x2="303.0" y2="1654"/>
<line class="axisl" x1="418.5" y1="1650" x2="418.5" y2="1654"/>
<text class="yr" x="28" y="1722.0">2023</text>
<rect x="72.0" y="1694" width="309.5" height="48" fill="#8a7a4e"><title>Nigeria. Staple plants, 2023: 67.0 percent</title></rect>
<text class="segnum" x="226.8" y="1722.5" text-anchor="middle">67</text>
<rect x="381.5" y="1694" width="104.9" height="48" fill="#e0862b"><title>Nigeria. Oils and sugar, 2023: 22.7 percent</title></rect>
<text class="segnum" x="434.0" y="1722.5" text-anchor="middle">23</text>
<rect x="486.4" y="1694" width="12.0" height="48" fill="#d1477a"><title>Nigeria. Meat, dairy, eggs, 2023: 2.6 percent</title></rect>
<rect x="498.4" y="1694" width="28.6" height="48" fill="#12a594"><title>Nigeria. Fruits and vegetables, 2023: 6.2 percent</title></rect>
<text class="segnum" x="512.7" y="1722.5" text-anchor="middle">6</text>
<rect x="527.1" y="1694" width="6.5" height="48" fill="#8b94a3"><title>Nigeria. Alcohol and other, 2023: 1.4 percent</title></rect>
<line x1="492.4" y1="1743.0" x2="492.4" y2="1749.0" stroke="#d1477a" stroke-width="1.4"/>
<text class="segsm" x="492.4" y="1758.0" text-anchor="middle" fill="#d1477a">3</text>
<line x1="530.3" y1="1743.0" x2="530.3" y2="1749.0" stroke="#8b94a3" stroke-width="1.4"/>
<text class="segsm" x="530.3" y="1758.0" text-anchor="middle" fill="#8b94a3">1</text>
<line class="axisl" x1="187.5" y1="1742" x2="187.5" y2="1746"/>
<line class="axisl" x1="303.0" y1="1742" x2="303.0" y2="1746"/>
<line class="axisl" x1="418.5" y1="1742" x2="418.5" y2="1746"/>
<line class="axisl" x1="72" y1="1780" x2="534" y2="1780"/>
<line class="axisl" x1="72.0" y1="1780" x2="72.0" y2="1785"/>
<text class="tick2" x="72.0" y="1800" text-anchor="middle">0</text>
<line class="axisl" x1="187.5" y1="1780" x2="187.5" y2="1785"/>
<text class="tick2" x="187.5" y="1800" text-anchor="middle">25</text>
<line class="axisl" x1="303.0" y1="1780" x2="303.0" y2="1785"/>
<text class="tick2" x="303.0" y="1800" text-anchor="middle">50</text>
<line class="axisl" x1="418.5" y1="1780" x2="418.5" y2="1785"/>
<text class="tick2" x="418.5" y="1800" text-anchor="middle">75</text>
<line class="axisl" x1="534.0" y1="1780" x2="534.0" y2="1785"/>
<text class="tick2" x="534.0" y="1800" text-anchor="middle">100%</text>
<text class="cty" x="580" y="1578">Senegal</text>
<text class="yr" x="580" y="1630.0">1961</text>
<rect x="624.0" y="1602" width="312.8" height="48" fill="#8a7a4e"><title>Senegal. Staple plants, 1961: 67.7 percent</title></rect>
<text class="segnum" x="780.4" y="1630.5" text-anchor="middle">68</text>
<rect x="936.8" y="1602" width="106.3" height="48" fill="#e0862b"><title>Senegal. Oils and sugar, 1961: 23.0 percent</title></rect>
<text class="segnum" x="989.9" y="1630.5" text-anchor="middle">23</text>
<rect x="1043.0" y="1602" width="31.4" height="48" fill="#d1477a"><title>Senegal. Meat, dairy, eggs, 1961: 6.8 percent</title></rect>
<text class="segnum" x="1058.7" y="1630.5" text-anchor="middle">7</text>
<rect x="1074.5" y="1602" width="6.0" height="48" fill="#12a594"><title>Senegal. Fruits and vegetables, 1961: 1.3 percent</title></rect>
<rect x="1080.5" y="1602" width="5.5" height="48" fill="#8b94a3"><title>Senegal. Alcohol and other, 1961: 1.2 percent</title></rect>
<line x1="1077.5" y1="1651.0" x2="1077.5" y2="1657.0" stroke="#12a594" stroke-width="1.4"/>
<text class="segsm" x="1077.5" y="1666.0" text-anchor="middle" fill="#12a594">1</text>
<line x1="1083.2" y1="1651.0" x2="1083.2" y2="1670.0" stroke="#8b94a3" stroke-width="1.4"/>
<text class="segsm" x="1083.2" y="1679.0" text-anchor="middle" fill="#8b94a3">1</text>
<line class="axisl" x1="739.5" y1="1650" x2="739.5" y2="1654"/>
<line class="axisl" x1="855.0" y1="1650" x2="855.0" y2="1654"/>
<line class="axisl" x1="970.5" y1="1650" x2="970.5" y2="1654"/>
<text class="yr" x="580" y="1722.0">2023</text>
<rect x="624.0" y="1694" width="298.0" height="48" fill="#8a7a4e"><title>Senegal. Staple plants, 2023: 64.5 percent</title></rect>
<text class="segnum" x="773.0" y="1722.5" text-anchor="middle">64</text>
<rect x="922.0" y="1694" width="113.2" height="48" fill="#e0862b"><title>Senegal. Oils and sugar, 2023: 24.5 percent</title></rect>
<text class="segnum" x="978.6" y="1722.5" text-anchor="middle">24</text>
<rect x="1035.2" y="1694" width="26.3" height="48" fill="#d1477a"><title>Senegal. Meat, dairy, eggs, 2023: 5.7 percent</title></rect>
<text class="segnum" x="1048.3" y="1722.5" text-anchor="middle">6</text>
<rect x="1061.5" y="1694" width="20.8" height="48" fill="#12a594"><title>Senegal. Fruits and vegetables, 2023: 4.5 percent</title></rect>
<text class="segnum" x="1071.9" y="1722.5" text-anchor="middle">4</text>
<rect x="1082.3" y="1694" width="3.7" height="48" fill="#8b94a3"><title>Senegal. Alcohol and other, 2023: 0.8 percent</title></rect>
<line x1="1084.2" y1="1743.0" x2="1084.2" y2="1749.0" stroke="#8b94a3" stroke-width="1.4"/>
<text class="segsm" x="1084.2" y="1758.0" text-anchor="middle" fill="#8b94a3">1</text>
<line class="axisl" x1="739.5" y1="1742" x2="739.5" y2="1746"/>
<line class="axisl" x1="855.0" y1="1742" x2="855.0" y2="1746"/>
<line class="axisl" x1="970.5" y1="1742" x2="970.5" y2="1746"/>
<line class="axisl" x1="624" y1="1780" x2="1086" y2="1780"/>
<line class="axisl" x1="624.0" y1="1780" x2="624.0" y2="1785"/>
<text class="tick2" x="624.0" y="1800" text-anchor="middle">0</text>
<line class="axisl" x1="739.5" y1="1780" x2="739.5" y2="1785"/>
<text class="tick2" x="739.5" y="1800" text-anchor="middle">25</text>
<line class="axisl" x1="855.0" y1="1780" x2="855.0" y2="1785"/>
<text class="tick2" x="855.0" y="1800" text-anchor="middle">50</text>
<line class="axisl" x1="970.5" y1="1780" x2="970.5" y2="1785"/>
<text class="tick2" x="970.5" y="1800" text-anchor="middle">75</text>
<line class="axisl" x1="1086.0" y1="1780" x2="1086.0" y2="1785"/>
<text class="tick2" x="1086.0" y="1800" text-anchor="middle">100%</text>
<text class="src" x="28" y="1852">Data: FAO food balance sheets via Our World in Data. Latest year is 2023, or 2022 for Japan. Each bar spans 0 to 100 percent of daily calories.</text>
</svg>